<svg id="Layer_1" data-name="Layer 1" xmlns="http://www.w3.org/2000/svg" viewBox="0 0 48 48"><title>Artboard 1 copy 13</title><path d="M41.34,17.5V13.15a6.51,6.51,0,0,0-6.5-6.5H13.12a6.51,6.51,0,0,0-6.5,6.5V17.5a5.51,5.51,0,0,0-4.31,5.37V37.2H45.65V22.87A5.51,5.51,0,0,0,41.34,17.5Zm1.31,16.7H5.31V22.87a2.5,2.5,0,0,1,2.5-2.5H9.62V13.15a3.51,3.51,0,0,1,3.5-3.5H34.84a3.51,3.51,0,0,1,3.5,3.5v7.22h1.81a2.5,2.5,0,0,1,2.5,2.5Z" style="fill:#231f20"/><path d="M33.4,24.06h-19a3.5,3.5,0,0,1-3.5-3.5V14.64a3.5,3.5,0,0,1,3.5-3.5h19a3.5,3.5,0,0,1,3.5,3.5v5.92A3.5,3.5,0,0,1,33.4,24.06Zm-19-9.92a.5.5,0,0,0-.5.5v5.92a.5.5,0,0,0,.5.5h19a.5.5,0,0,0,.5-.5V14.64a.5.5,0,0,0-.5-.5Z" style="fill:#231f20"/><path d="M10.38,32.86a4.48,4.48,0,1,1,4.48-4.48A4.49,4.49,0,0,1,10.38,32.86Zm0-6a1.48,1.48,0,1,0,1.48,1.48A1.49,1.49,0,0,0,10.38,26.9Z" style="fill:#231f20"/><path d="M37.24,32.86a4.48,4.48,0,1,1,4.49-4.48A4.49,4.49,0,0,1,37.24,32.86Zm0-6a1.48,1.48,0,1,0,1.49,1.48A1.48,1.48,0,0,0,37.24,26.9Z" style="fill:#231f20"/><rect x="18.39" y="25.53" width="11.17" height="3" rx="1.5" ry="1.5" style="fill:#231f20"/><rect x="20.39" y="29.87" width="6" height="3" rx="1.5" ry="1.5" style="fill:#231f20"/><path d="M7.43,35.95h6.38a0,0,0,0,1,0,0v4.19a3.19,3.19,0,0,1-3.19,3.19h0a3.19,3.19,0,0,1-3.19-3.19V35.95A0,0,0,0,1,7.43,35.95Z" style="fill:#231f20"/><path d="M34.75,35.95h6.37a0,0,0,0,1,0,0v4.88a2.49,2.49,0,0,1-2.49,2.49H37.24a2.49,2.49,0,0,1-2.49-2.49V35.95A0,0,0,0,1,34.75,35.95Z" style="fill:#231f20"/><path d="M40.18,4.52h0a2.71,2.71,0,0,0-3.85,0l-12,12a2.74,2.74,0,0,1-3.86,0l-12-12a2.71,2.71,0,0,0-3.85,0h0a2.71,2.71,0,0,0,0,3.85l12,12a2.74,2.74,0,0,1,0,3.86l-12,12a2.72,2.72,0,0,0,0,3.86h0a2.73,2.73,0,0,0,3.85,0l12-12a2.72,2.72,0,0,1,3.86,0l12,12a2.73,2.73,0,0,0,3.85,0h0a2.72,2.72,0,0,0,0-3.86l-12-12a2.72,2.72,0,0,1,0-3.86l12-12A2.71,2.71,0,0,0,40.18,4.52Z"/></svg>