<svg id="Layer_1" data-name="Layer 1" xmlns="http://www.w3.org/2000/svg" viewBox="0 0 48 48"><title>Artboard 1 copy 29</title><path d="M22.88,38.48V34.8a10.69,10.69,0,0,1-5.58-1.6l.88-2.45a9.68,9.68,0,0,0,5.25,1.57c2.59,0,4.34-1.5,4.34-3.57s-1.42-3.25-4.12-4.34c-3.72-1.46-6-3.14-6-6.31s2.15-5.33,5.51-5.87V8.54H25.4v3.54a9.69,9.69,0,0,1,4.74,1.28l-.91,2.4a8.91,8.91,0,0,0-4.6-1.24c-2.81,0-3.86,1.68-3.86,3.14,0,1.9,1.35,2.85,4.52,4.16,3.76,1.53,5.65,3.43,5.65,6.67,0,2.88-2,5.58-5.76,6.2v3.79Z" style="fill:#1e4159"/><path d="M12.06,30.55V28.84a5.05,5.05,0,0,1-2.6-.75L9.87,27a4.52,4.52,0,0,0,2.45.73c1.2,0,2-.7,2-1.66s-.66-1.52-1.92-2c-1.73-.67-2.8-1.46-2.8-2.93a2.79,2.79,0,0,1,2.56-2.74V16.61h1.05v1.64a4.57,4.57,0,0,1,2.21.6L15,20a4.07,4.07,0,0,0-2.14-.58c-1.31,0-1.8.78-1.8,1.46,0,.88.62,1.33,2.1,1.94,1.75.71,2.64,1.6,2.64,3.11a3,3,0,0,1-2.69,2.88v1.77Z" style="fill:#1e4159"/><path d="M35,30.55V28.84a5,5,0,0,1-2.6-.75L32.84,27a4.49,4.49,0,0,0,2.44.73c1.21,0,2-.7,2-1.66s-.66-1.52-1.92-2c-1.73-.67-2.8-1.46-2.8-2.93a2.79,2.79,0,0,1,2.57-2.74V16.61H36.2v1.64a4.57,4.57,0,0,1,2.21.6L38,20a4,4,0,0,0-2.14-.58c-1.3,0-1.8.78-1.8,1.46,0,.88.63,1.33,2.11,1.94,1.75.71,2.63,1.6,2.63,3.11a2.94,2.94,0,0,1-2.68,2.88v1.77Z" style="fill:#1e4159"/></svg>