<svg id="Layer_1" data-name="Layer 1" xmlns="http://www.w3.org/2000/svg" viewBox="0 0 48 48"><title>Artboard 1 copy 44</title><path d="M45.38,24.29c-.4-.36-9.9-8.76-21.83-8.76S2.12,23.93,1.72,24.29L.89,25l.83.75c.4.35,9.9,8.75,21.83,8.75S45,26.13,45.38,25.78l.83-.75ZM23.55,32.35A7.32,7.32,0,1,1,30.87,25,7.32,7.32,0,0,1,23.55,32.35ZM17,18.42a9.3,9.3,0,0,0,0,13.22A37.88,37.88,0,0,1,4,25,38.06,38.06,0,0,1,17,18.42ZM30.11,31.64a9.3,9.3,0,0,0,0-13.22,38.06,38.06,0,0,1,13,6.61A37.88,37.88,0,0,1,30.11,31.64Z" style="fill:#231f20"/></svg>