<svg id="Layer_1" data-name="Layer 1" xmlns="http://www.w3.org/2000/svg" viewBox="0 0 48 48"><title>Artboard 1 copy 9</title><path d="M22.94,39.73V35.38a12.42,12.42,0,0,1-6.58-1.89l1-2.88a11.5,11.5,0,0,0,6.19,1.85c3.06,0,5.12-1.76,5.12-4.22S27,24.42,23.84,23.13c-4.39-1.73-7.1-3.7-7.1-7.45,0-3.57,2.54-6.28,6.5-6.92V4.41h2.67V8.59a11.43,11.43,0,0,1,5.59,1.5l-1.08,2.84A10.33,10.33,0,0,0,25,11.47c-3.31,0-4.56,2-4.56,3.7,0,2.23,1.6,3.35,5.34,4.9,4.43,1.81,6.67,4,6.67,7.87,0,3.4-2.37,6.58-6.8,7.32v4.47Z" style="fill:none;stroke:#000;stroke-miterlimit:10;stroke-width:2px"/></svg>