<svg id="Layer_1" data-name="Layer 1" xmlns="http://www.w3.org/2000/svg" viewBox="0 0 48 48"><title>Artboard 55 copy 3</title><path d="M41.58,27a5.1,5.1,0,0,0-1.07-2.85,8.79,8.79,0,0,1-1.7-3.33A41,41,0,0,0,36,14.71a4.94,4.94,0,0,0-3.6-2.37,102.16,102.16,0,0,0-15.45,0,4.9,4.9,0,0,0-3.59,2.37,39.79,39.79,0,0,0-2.85,6.12,8.61,8.61,0,0,1-1.7,3.33A5.08,5.08,0,0,0,7.72,27c-.11,2.24.54,2.73,1.12,7.81a.78.78,0,0,0,.78.7H39.67a.8.8,0,0,0,.79-.7c.16-1.42.64-4.31.64-4.31A10.54,10.54,0,0,0,41.58,27Z" style="fill:#1e4159"/><path d="M38.18,20.72a42.31,42.31,0,0,0-2.68-5.67,4.38,4.38,0,0,0-3.2-2.15A97.81,97.81,0,0,0,17,12.9a4.4,4.4,0,0,0-3.2,2.15,44.75,44.75,0,0,0-2.68,5.67A174.74,174.74,0,0,0,38.18,20.72Z" style="fill:#c7e2ef"/><path d="M36.9,23.27a4.73,4.73,0,0,0-.93.41,11.75,11.75,0,0,1-1.52.72c-.86.33-1,.82-1,.82l-.07.1a1.38,1.38,0,0,0,1.37,2.11,16.09,16.09,0,0,0,3.78-1,1.35,1.35,0,0,0,.82-.92l0-.12A1.9,1.9,0,0,0,36.9,23.27Z" style="fill:#fff"/><path d="M38.7,31.09H36.82a.32.32,0,0,0-.22.54l1.88,1.88a.32.32,0,0,0,.54-.23V31.41A.32.32,0,0,0,38.7,31.09Z" style="fill:#ffe21f"/><path d="M40.46,34.82a.8.8,0,0,1-.79.7H36.06v2.09A1.34,1.34,0,0,0,37.4,39h2.27A1.34,1.34,0,0,0,41,37.61V31.06C40.86,32,40.57,33.78,40.46,34.82Z" style="fill:#454545"/><path d="M42,19.25A1.08,1.08,0,0,0,41,18.43h-.9a1,1,0,0,0-1,1.05v.65h-.48l.27.65h1.06a3.94,3.94,0,0,0,1.58-.34A1.06,1.06,0,0,0,42,19.25Z" style="fill:#1e4159"/><circle cx="37.49" cy="24.96" r="1.32" style="fill:#ffbd49"/><circle cx="34.84" cy="26" r="0.97" style="fill:#ffdb6f"/><polygon points="32.32 26 30.81 28.64 18.49 28.64 16.97 26 32.32 26" style="fill:#6f6f6f"/><path d="M15.93,25.32l-.08-.1s-.15-.49-1-.82a11,11,0,0,1-1.51-.72,5.11,5.11,0,0,0-.94-.41,1.9,1.9,0,0,0-2.47,2.11l0,.12a1.35,1.35,0,0,0,.82.92,16.09,16.09,0,0,0,3.78,1A1.39,1.39,0,0,0,15.93,25.32Z" style="fill:#fff"/><path d="M12.47,31.09H10.59a.31.31,0,0,0-.31.32v1.87a.32.32,0,0,0,.54.23l1.87-1.88A.32.32,0,0,0,12.47,31.09Z" style="fill:#ffe21f"/><path d="M37.14,34.36c-2-3.37-4.2-3.27-4.2-3.27H16.36s-2.25-.1-4.2,3.27H8.78l0,.44a.79.79,0,0,0,.79.72H39.68a.79.79,0,0,0,.79-.72l0-.44Z" style="fill:#777"/><path d="M9.62,35.52a.78.78,0,0,1-.78-.7c-.12-1-.41-2.85-.56-3.76v6.56A1.34,1.34,0,0,0,9.62,39h2.27a1.34,1.34,0,0,0,1.34-1.34v-2.1Z" style="fill:#454545"/><path d="M10.28,20.13v-.65a1,1,0,0,0-1-1.05H8.32a1.08,1.08,0,0,0-1.07.82,1,1,0,0,0,.59,1.18,3.8,3.8,0,0,0,1.59.35h1.05l.28-.65Z" style="fill:#1e4159"/><circle cx="11.8" cy="24.96" r="1.32" style="fill:#ffbd49"/><circle cx="14.46" cy="26" r="0.97" style="fill:#ffdb6f"/><path d="M31.67,32h-14a.39.39,0,0,0-.4.39.4.4,0,0,0,.4.4h14a.39.39,0,0,0,.39-.4A.38.38,0,0,0,31.67,32Z" style="fill:#6f6f6f"/><path d="M31.67,33.6h-14a.4.4,0,0,0,0,.8h14a.4.4,0,0,0,0-.8Z" style="fill:#6f6f6f"/><path d="M15.09,15.87l-.54-.51.5-.54a4.7,4.7,0,0,1,3.45-1.5H31a4.7,4.7,0,0,1,3.32,1.37l.14.14-.53.54-.14-.15A3.93,3.93,0,0,0,31,14.07H18.5a4,4,0,0,0-2.9,1.26Z" style="fill:#a2c9dd"/></svg>