<svg id="Layer_1" data-name="Layer 1" xmlns="http://www.w3.org/2000/svg" viewBox="0 0 48 48"><title>Artboard 1 copy 21</title><path d="M9.65,34.61h-7V24.28h7Zm-5-2h3V26.28h-3Z"/><path d="M18.48,33H7.94v-6.5h9.93L21,23.51l3,5.39ZM9.94,31h7.89l3.59-2.62-.91-1.61-1.85,1.73H9.94Z"/><path d="M24.3,31.48l-5.94-8,4.86-3.59,5.94,8Zm-3.14-7.62,3.56,4.83,1.64-1.22L22.8,22.65Z"/><path d="M34.55,35.27,18.88,16a4,4,0,0,1,.57-5.57L23.9,6.81a3.9,3.9,0,0,1,2.9-.87,4,4,0,0,1,2.67,1.44L45.15,26.67l-6.6,2.56ZM26.39,7.92a1.91,1.91,0,0,0-1.23.44L20.71,12a2,2,0,0,0-.28,2.76l14,17.17,2.85-4.3,4.63-1.8L27.92,8.64a1.92,1.92,0,0,0-1.32-.71Z"/><rect x="29.14" y="6.57" width="2" height="24.6" transform="translate(-5.15 23.24) rotate(-39.12)"/><path d="M36,33.4l-.56-1.92,1.28-.36A4.22,4.22,0,0,0,40,28.63l.7-1.67,1.85.77-.71,1.69a6.24,6.24,0,0,1-4.73,3.66Z"/></svg>