<svg id="Layer_1" data-name="Layer 1" xmlns="http://www.w3.org/2000/svg" viewBox="0 0 48 48"><title>Artboard 1 copy 41</title><circle cx="37.79" cy="23.43" r="2.36" style="fill:#173444"/><rect x="3.24" y="26.21" width="8.54" height="12.2" style="fill:#1e4159"/><rect x="9.69" y="29.43" width="14.32" height="5.76" style="fill:#1e4159"/><polygon points="29.61 24.68 24 35.2 18.72 29.92 25.54 20.61 29.61 24.68" style="fill:#1e4159"/><rect x="30" y="21.01" width="2.42" height="5.93" transform="translate(-7.81 29.09) rotate(-45)" style="fill:#1e4159"/><path d="M37.18,32.43,19.59,14.84a3.17,3.17,0,0,1,0-4.47L23.86,6.1a3.15,3.15,0,0,1,4.47,0L45.92,23.68l-8.85-1.32Z" style="fill:#1e4159"/><polygon points="34.23 22.73 24.66 13.18 25.78 12.07 35.34 21.62 34.23 22.73" style="fill:#f44d31"/></svg>