<svg id="Layer_1" data-name="Layer 1" xmlns="http://www.w3.org/2000/svg" viewBox="0 0 48 48"><title>Artboard 55 copy</title><path d="M22.58,43.25H13.3A3.26,3.26,0,0,1,10,40V35.69a.66.66,0,0,1,1.32,0V40a1.94,1.94,0,0,0,2,2h9.28a.61.61,0,0,1,.65.65A.66.66,0,0,1,22.58,43.25Z" style="fill:#193651"/><path d="M12.05,38.19l-1.38-1.78L9.29,38.19a.66.66,0,0,1-1.06-.79L10.14,35a.69.69,0,0,1,1.06,0l1.9,2.44a.64.64,0,0,1-.13.92A.71.71,0,0,1,12.05,38.19Z" style="fill:#193651"/><path d="M23.5,33.45H6.79a4,4,0,0,1-3.95-4V6.74a4,4,0,0,1,4-3.95H23.5a4,4,0,0,1,3.94,4V29.5A4,4,0,0,1,23.5,33.45ZM6.79,4.11A2.63,2.63,0,0,0,4.16,6.74V29.5a2.63,2.63,0,0,0,2.63,2.63H23.5a2.64,2.64,0,0,0,2.63-2.63V6.74A2.64,2.64,0,0,0,23.5,4.11Z" style="fill:#1e4159"/><path d="M6.79,30.16a.62.62,0,0,1-.66-.66V6.74a.62.62,0,0,1,.66-.66H23.5a.62.62,0,0,1,.65.66V29.5a.62.62,0,0,1-.65.66Z" style="fill:#fff"/><rect x="8.5" y="9.5" width="13.35" height="0.86" style="fill:#e1e6e9"/><rect x="8.5" y="12.79" width="13.35" height="0.86" style="fill:#e1e6e9"/><rect x="8.5" y="16.02" width="13.35" height="0.86" style="fill:#e1e6e9"/><rect x="8.5" y="19.31" width="13.35" height="0.86" style="fill:#e1e6e9"/><rect x="8.5" y="22.6" width="13.35" height="0.86" style="fill:#e1e6e9"/><rect x="8.5" y="25.82" width="13.35" height="0.86" style="fill:#e1e6e9"/><path d="M36.65,16.94H24.75a2.22,2.22,0,0,0-2.24,2.23v23a2.22,2.22,0,0,0,2.24,2.24h17.3a2.22,2.22,0,0,0,2.24-2.24V24.5Z" style="fill:#fff"/><path d="M42.05,45H24.75a2.93,2.93,0,0,1-2.9-2.9v-23a2.93,2.93,0,0,1,2.9-2.9h11.9a.6.6,0,0,1,.46.2L44.75,24a.6.6,0,0,1,.19.46V42.13A2.87,2.87,0,0,1,42.05,45ZM24.75,17.6a1.59,1.59,0,0,0-1.58,1.57v23a1.6,1.6,0,0,0,1.58,1.58h17.3a1.61,1.61,0,0,0,1.58-1.58V24.83L36.39,17.6Z" style="fill:#1e4159"/><path d="M36.52,17.66V22.4a2.34,2.34,0,0,0,2.31,2.3h4.73L38.86,20Z" style="fill:#f44d31"/><rect x="25.73" y="21.08" width="9.21" height="0.92" style="fill:#e1e6e9"/><rect x="25.34" y="24.17" width="9.21" height="0.92" style="fill:#e1e6e9"/><rect x="24.94" y="27.86" width="16.64" height="0.79" style="fill:#e1e6e9"/><rect x="24.94" y="31.61" width="16.64" height="0.79" style="fill:#e1e6e9"/><rect x="24.94" y="35.29" width="16.64" height="0.79" style="fill:#e1e6e9"/><rect x="24.94" y="38.98" width="8.29" height="0.79" style="fill:#e1e6e9"/><path d="M38.89,14.31a.63.63,0,0,1-.66-.66V9.37a1.93,1.93,0,0,0-2-2H26.79a.62.62,0,0,1-.66-.66.62.62,0,0,1,.66-.66h9.47a3.26,3.26,0,0,1,3.29,3.29v4.28A.67.67,0,0,1,38.89,14.31Z" style="fill:#1e4159"/><path d="M38.89,14.31a.61.61,0,0,1-.53-.27l-1.9-2.43a.66.66,0,0,1,1-.79l1.38,1.78,1.38-1.78a.66.66,0,0,1,1.06.79L39.42,14A.6.6,0,0,1,38.89,14.31Z" style="fill:#1e4159"/></svg>