<svg id="Layer_1" data-name="Layer 1" xmlns="http://www.w3.org/2000/svg" viewBox="0 0 48 48"><title>Artboard 1 copy 30</title><rect x="15.73" y="3.1" width="2.33" height="36.59" rx="1.16" style="fill:#1e4159"/><path d="M19.18,34.94v1.14a1,1,0,0,0,.59.89c1.05.45,1.7,1.11,1.7,1.73,0,1.08-2,2.29-4.58,2.29s-4.58-1.21-4.58-2.29c0-.54.5-1.12,1.32-1.55a1,1,0,0,0,.51-.85V35.13a1,1,0,0,0-1.33-.91c-2.12.93-3.5,2.57-3.5,4.48,0,3,3.33,5.29,7.58,5.29s7.58-2.32,7.58-5.29c0-2-1.58-3.78-3.95-4.67A1,1,0,0,0,19.18,34.94Z" style="fill:#1e4159"/><polygon points="38.98 21.17 17.02 21.17 17.02 4.43 38.98 4.43 34.86 12.68 38.98 21.17" style="fill:#1e4159"/></svg>