<svg id="Layer_1" data-name="Layer 1" xmlns="http://www.w3.org/2000/svg" viewBox="0 0 48 48"><title>Artboard 1 copy 10</title><rect x="12.52" y="3.1" width="2.33" height="36.59" style="fill:#231f20"/><path d="M16,33.64v3.11c1.39.44,2.3,1.22,2.3,2,0,1.08-2,2.29-4.59,2.29S9.1,39.78,9.1,38.7c0-.65.71-1.34,1.83-1.79V33.76c-2.85.75-4.83,2.65-4.83,4.94,0,3,3.33,5.29,7.58,5.29s7.59-2.32,7.59-5.29C21.27,36.29,19.07,34.31,16,33.64Z" style="fill:#231f20"/><polyline points="16.39 20.86 34.68 20.86 30.66 13.49 34.55 7.03 16.39 7.03" style="fill:none"/><polygon points="34.12 13.57 39.86 4.03 16.39 4.03 16.39 7.03 34.55 7.03 30.66 13.49 34.68 20.86 16.39 20.86 16.39 23.86 39.74 23.86 34.12 13.57" style="fill:#231f20"/></svg>