<svg id="Layer_1" data-name="Layer 1" xmlns="http://www.w3.org/2000/svg" viewBox="0 0 48 48"><title>Artboard 1 copy 19</title><path d="M7.64,12.39V43.18a1.18,1.18,0,0,0,1.18,1.18h29.8a1.18,1.18,0,0,0,1.18-1.18V12.39a1.18,1.18,0,0,0-1.18-1.19H8.82A1.18,1.18,0,0,0,7.64,12.39Zm3.18.81H21.53a1.19,1.19,0,0,1,1.19,1.19V41.18a1.18,1.18,0,0,1-1.19,1.18H10.82a1.18,1.18,0,0,1-1.18-1.18V14.39A1.18,1.18,0,0,1,10.82,13.2Zm25.8,29.16H25.91a1.18,1.18,0,0,1-1.19-1.18V14.39a1.19,1.19,0,0,1,1.19-1.19H36.62a1.18,1.18,0,0,1,1.18,1.19V41.18A1.18,1.18,0,0,1,36.62,42.36Z"/><path d="M30.87,9.66H17.18A1.19,1.19,0,0,1,16,8.47v-4a1.19,1.19,0,0,1,1.19-1.19H30.87a1.18,1.18,0,0,1,1.18,1.19v4A1.18,1.18,0,0,1,30.87,9.66Zm-11.69-2h9.69a1.18,1.18,0,0,0,1.18-1.19h0a1.18,1.18,0,0,0-1.18-1.19H19.18A1.19,1.19,0,0,0,18,6.47h0A1.19,1.19,0,0,0,19.18,7.66Z"/></svg>