<svg id="Layer_1" data-name="Layer 1" xmlns="http://www.w3.org/2000/svg" viewBox="0 0 48 48"><title>Artboard 1 copy 39</title><path d="M14.13,11.38h9.09a0,0,0,0,1,0,0V43.55a0,0,0,0,1,0,0H13.08A5.74,5.74,0,0,1,7.34,37.8V18.17A6.79,6.79,0,0,1,14.13,11.38Z" style="fill:#1e4159"/><path d="M30.34,11.38H40.48a0,0,0,0,1,0,0V43.55a0,0,0,0,1,0,0H31.39a6.79,6.79,0,0,1-6.79-6.79V17.13A5.74,5.74,0,0,1,30.34,11.38Z" transform="translate(65.08 54.94) rotate(-180)" style="fill:#1e4159"/><rect x="23.22" y="11.38" width="1.77" height="32.17" style="fill:#152f3d"/><rect x="16.17" y="6.96" width="14.41" height="3.31" rx="1.44" style="fill:#f44d31"/></svg>