<svg id="Layer_1" data-name="Layer 1" xmlns="http://www.w3.org/2000/svg" viewBox="0 0 48 48"><title>Artboard 1 copy 27</title><path d="M40.59,19.57h-.16a3,3,0,0,0-2.25,1v-3a3.09,3.09,0,0,0-3.09-3.08h-.76a3.08,3.08,0,0,0-3.08,3.08V22.3h-14V17.57a3.09,3.09,0,0,0-3.09-3.08h-.76a3.08,3.08,0,0,0-3.08,3.08v3a3,3,0,0,0-2.25-1H7.87a3,3,0,0,0-3,3v4.09a3,3,0,0,0,3,3H8a3,3,0,0,0,2.25-1v3a3.08,3.08,0,0,0,3.08,3.08h.76a3.09,3.09,0,0,0,3.09-3.08V26.93h14v4.73a3.08,3.08,0,0,0,3.08,3.08h.76a3.09,3.09,0,0,0,3.09-3.08v-3a3,3,0,0,0,2.25,1h.16a3,3,0,0,0,3-3V22.57A3,3,0,0,0,40.59,19.57ZM9,26.66a1,1,0,0,1-1,1H7.87a1,1,0,0,1-1-1V22.57a1,1,0,0,1,1-1H8a1,1,0,0,1,1,1Zm6.18,5a1.09,1.09,0,0,1-1.09,1.08h-.76a1.08,1.08,0,0,1-1.08-1.08V17.57a1.08,1.08,0,0,1,1.08-1.08h.76a1.09,1.09,0,0,1,1.09,1.08Zm14.51-6.73H18V24.3h11.7Zm6.45,6.73a1.09,1.09,0,0,1-1.09,1.08h-.76a1.08,1.08,0,0,1-1.08-1.08V17.57a1.08,1.08,0,0,1,1.08-1.08h.76a1.09,1.09,0,0,1,1.09,1.08Zm5.41-5a1,1,0,0,1-1,1h-.16a1,1,0,0,1-1-1V22.57a1,1,0,0,1,1-1h.16a1,1,0,0,1,1,1Z" style="fill:#231f20"/></svg>