<svg id="Layer_1" data-name="Layer 1" xmlns="http://www.w3.org/2000/svg" viewBox="0 0 48 48"><title>Artboard 1 copy 22</title><path d="M38.41,1.24h0c-4-.09-7.19,4.26-7.19,9.62,0,4.24,2,7.84,4.81,9.12V45a2.62,2.62,0,0,0,2.37,2.61h0A2.62,2.62,0,0,0,40.79,45V20c2.79-1.28,4.81-4.88,4.81-9.12C45.6,5.5,42.36,1.15,38.41,1.24Zm1.51,16.94a.71.71,0,0,0-.39.39c-.19.47-.56,1.42-.69,1.77a.75.75,0,0,0-.05.26V45.66H38V20.6a.75.75,0,0,0-.05-.26c-.13-.35-.5-1.3-.69-1.77a.71.71,0,0,0-.39-.39c-2.12-.9-3.68-3.83-3.68-7.32,0-4.2,2.27-7.62,5.06-7.62h.26c2.79,0,5.06,3.42,5.06,7.62C43.6,14.35,42,17.28,39.92,18.18Z"/><path d="M16.66,20.72v24.9H15.9V20.72h-2V45a2.65,2.65,0,0,0,2.38,2.65h0A2.64,2.64,0,0,0,18.66,45V20.72Z"/><path d="M23,13.16V4.28h0v0H9.83v0h0v8.88a6.3,6.3,0,0,0,6.09,6.28v0h.72v0h.07A6.29,6.29,0,0,0,23,13.16Z" style="fill:none"/><path d="M9.83,13.16V4.28h0v-1a1,1,0,0,0-1-1h0a1,1,0,0,0-1,1v9.88a8.29,8.29,0,0,0,8.09,8.28v-2A6.3,6.3,0,0,1,9.83,13.16Z"/><path d="M24,2.28a1,1,0,0,0-1,1v1h0v8.88a6.29,6.29,0,0,1-6.29,6.29h-.07v2h.07A8.29,8.29,0,0,0,25,13.16V3.29a1,1,0,0,0-1-1Z"/><rect x="12.73" y="2.49" width="2" height="15" rx="1" ry="1"/><rect x="18.1" y="2.49" width="2" height="15" rx="1" ry="1"/></svg>