<svg id="Layer_1" data-name="Layer 1" xmlns="http://www.w3.org/2000/svg" viewBox="0 0 48 48"><title>Artboard 1 copy 42</title><path d="M39.41,39.76H7.9a4.34,4.34,0,0,1-3.54-1.82L2.62,35.5a.71.71,0,0,1,.58-1.13H44.11a.71.71,0,0,1,.58,1.13L43,37.94A4.34,4.34,0,0,1,39.41,39.76Z" style="fill:#f44d31"/><path d="M4,34.37a19.25,19.25,0,0,1,38.5,0Z" style="fill:#1e4159"/><path d="M26.69,16.2l-.63-.09a18.64,18.64,0,0,0-5.58,0l-.63.09-.21-.61a3.64,3.64,0,0,1-.22-1.23,3.85,3.85,0,0,1,7.7,0,3.64,3.64,0,0,1-.22,1.23Zm-3.42-1.84a19.58,19.58,0,0,1,2.3.13.57.57,0,0,0,0-.13,2.31,2.31,0,1,0-4.62,0v.13A19.87,19.87,0,0,1,23.27,14.36Z" style="fill:#1e4159"/><path d="M19.69,19.37a.77.77,0,0,1-.17-1.52,17.28,17.28,0,0,1,3.74-.41.75.75,0,0,1,.78.77.78.78,0,0,1-.77.77h0a15.4,15.4,0,0,0-3.4.37A.52.52,0,0,1,19.69,19.37Z" style="fill:#fff"/><path d="M7.87,32.06H7.73a.77.77,0,0,1-.62-.89,17,17,0,0,1,7.81-11.49A.77.77,0,0,1,15.7,21,15.42,15.42,0,0,0,8.63,31.43.77.77,0,0,1,7.87,32.06Z" style="fill:#fff"/></svg>