<svg id="Layer_1" data-name="Layer 1" xmlns="http://www.w3.org/2000/svg" viewBox="0 0 48 48"><title>Artboard 1 copy 23</title><path d="M46.66,34H1.33V21.56H46.66ZM3.33,32H44.66V23.56H3.33Z"/><path d="M10.1,22.82H1.35v-9H7.1a3,3,0,0,1,3,3Zm-6.75-2H8.1v-4a1,1,0,0,0-1-1H3.35Z"/><path d="M46.63,22.82H37.88v-6a3,3,0,0,1,3-3h5.75Zm-6.75-2h4.75v-5H40.88a1,1,0,0,0-1,1Z"/><path d="M6,39.15H1.35V33.39H6Zm-2.67-2H4V35.39H3.35Z"/><path d="M46.63,39.07H42V33.31h4.67Zm-2.67-2h.67V35.31H44Z"/><path d="M25,23.53H1.37V11.11a6,6,0,0,1,6-6H19a6,6,0,0,1,6,6Zm-21.6-2H23V11.11a4,4,0,0,0-4-4H7.37a4,4,0,0,0-4,4Z"/><path d="M46.63,23.53H23V11.11a6,6,0,0,1,6-6H40.63a6,6,0,0,1,6,6ZM25,21.53H44.63V11.11a4,4,0,0,0-4-4H29a4,4,0,0,0-4,4Z"/></svg>