<svg id="Layer_1" data-name="Layer 1" xmlns="http://www.w3.org/2000/svg" viewBox="0 0 48 48"><title>Artboard 1 copy 43</title><rect x="3.28" y="26.68" width="39.68" height="6.69" style="fill:#173242"/><path d="M6.93,12.08H19.61a3.56,3.56,0,0,1,3.56,3.56v11a0,0,0,0,1,0,0H3.37a0,0,0,0,1,0,0v-11A3.56,3.56,0,0,1,6.93,12.08Z" style="fill:#1e4159"/><path d="M26.84,12.08H39.51a3.56,3.56,0,0,1,3.56,3.56v11a0,0,0,0,1,0,0H23.28a0,0,0,0,1,0,0v-11A3.56,3.56,0,0,1,26.84,12.08Z" style="fill:#1e4159"/><path d="M3.38,21.47h3a2.44,2.44,0,0,1,2.44,2.44v3a0,0,0,0,1,0,0H3.38a0,0,0,0,1,0,0V21.47A0,0,0,0,1,3.38,21.47Z" style="fill:#3a82aa"/><path d="M37.71,21.47H43.1a0,0,0,0,1,0,0v3a2.44,2.44,0,0,1-2.44,2.44h-3a0,0,0,0,1,0,0V21.47A0,0,0,0,1,37.71,21.47Z" transform="translate(80.81 48.33) rotate(-180)" style="fill:#3a82aa"/><rect x="3.28" y="33.37" width="2.24" height="2.44" style="fill:#3a82aa"/><rect x="40.73" y="33.34" width="2.24" height="2.44" style="fill:#3a82aa"/></svg>