<svg id="Layer_1" data-name="Layer 1" xmlns="http://www.w3.org/2000/svg" viewBox="0 0 48 48"><title>Artboard 1 copy 12</title><path d="M42.17,17.5V13.15a6.51,6.51,0,0,0-6.5-6.5H14a6.51,6.51,0,0,0-6.5,6.5V17.5a5.5,5.5,0,0,0-4.3,5.37V37.2H46.48V22.87A5.51,5.51,0,0,0,42.17,17.5Zm1.31,16.7H6.15V22.87a2.5,2.5,0,0,1,2.5-2.5h1.8V13.15A3.51,3.51,0,0,1,14,9.65H35.67a3.51,3.51,0,0,1,3.5,3.5v7.22H41a2.5,2.5,0,0,1,2.5,2.5Z" style="fill:#231f20"/><path d="M34.23,24.06h-19a3.5,3.5,0,0,1-3.5-3.5V14.64a3.5,3.5,0,0,1,3.5-3.5h19a3.5,3.5,0,0,1,3.5,3.5v5.92A3.5,3.5,0,0,1,34.23,24.06Zm-19-9.92a.5.5,0,0,0-.5.5v5.92a.5.5,0,0,0,.5.5h19a.5.5,0,0,0,.5-.5V14.64a.5.5,0,0,0-.5-.5Z" style="fill:#231f20"/><path d="M11.21,32.86a4.48,4.48,0,1,1,4.49-4.48A4.49,4.49,0,0,1,11.21,32.86Zm0-6a1.48,1.48,0,1,0,1.49,1.48A1.48,1.48,0,0,0,11.21,26.9Z" style="fill:#231f20"/><path d="M38.07,32.86a4.48,4.48,0,1,1,4.49-4.48A4.49,4.49,0,0,1,38.07,32.86Zm0-6a1.48,1.48,0,1,0,1.49,1.48A1.48,1.48,0,0,0,38.07,26.9Z" style="fill:#231f20"/><rect x="19.23" y="25.53" width="11.17" height="3" rx="1.5" ry="1.5" style="fill:#231f20"/><rect x="21.23" y="29.87" width="6" height="3" rx="1.5" ry="1.5" style="fill:#231f20"/><path d="M8.27,35.95h6.38a0,0,0,0,1,0,0v4.19a3.19,3.19,0,0,1-3.19,3.19h0a3.19,3.19,0,0,1-3.19-3.19V35.95A0,0,0,0,1,8.27,35.95Z" style="fill:#231f20"/><path d="M35.58,35.95H42a0,0,0,0,1,0,0v4.88a2.49,2.49,0,0,1-2.49,2.49H38.07a2.49,2.49,0,0,1-2.49-2.49V35.95A0,0,0,0,1,35.58,35.95Z" style="fill:#231f20"/></svg>