<svg id="Layer_1" data-name="Layer 1" xmlns="http://www.w3.org/2000/svg" viewBox="0 0 48 48"><title>Artboard 1 copy 32</title><path d="M43.77,23.35c-1.38-.85-5.85-1.94-12.11-1.94l-3.31-3.86a3.65,3.65,0,0,0-2.79-1.29h-9.9a4.4,4.4,0,0,0-2.87,1.07l-3.9,3.34-4.17.6a1.48,1.48,0,0,0-1.22,1.1l-.49,2,11,5.14H44.89V25.34A2.34,2.34,0,0,0,43.77,23.35Z" style="fill:#1e4159"/><path d="M44.89,25.82c0-1.47-2.21-2.94-12.49-2.94H3.74a.73.73,0,0,0-.73.73V28l14,2.2H44.89v-4.4Z" style="fill:#1e4159"/><path d="M44.89,28.75H10.44L3.9,27.3a.74.74,0,0,0-.32,1.44l6.62,1.47H44.89a.74.74,0,0,0,0-1.47Z" style="fill:#f44d31"/><circle cx="38.27" cy="28.75" r="3.67" style="fill:#ededee"/><path d="M38.27,33.16a4.41,4.41,0,1,1,4.41-4.41A4.4,4.4,0,0,1,38.27,33.16Zm0-7.34a2.94,2.94,0,1,0,2.94,2.93A2.94,2.94,0,0,0,38.27,25.82Z" style="fill:#504b5a"/><circle cx="38.27" cy="28.75" r="1.47" style="fill:#dcdbde"/><circle cx="10.35" cy="28.75" r="3.67" style="fill:#ededee"/><path d="M10.35,33.16a4.41,4.41,0,1,1,4.41-4.41A4.4,4.4,0,0,1,10.35,33.16Zm0-7.34a2.94,2.94,0,1,0,2.94,2.93A2.93,2.93,0,0,0,10.35,25.82Z" style="fill:#504b5a"/><circle cx="10.35" cy="28.75" r="1.47" style="fill:#dcdbde"/><path d="M32.4,27.28H17a.73.73,0,0,1-.74-.73h0a.73.73,0,0,1,.74-.73H32.4a.73.73,0,0,1,.73.73h0A.73.73,0,0,1,32.4,27.28Z" style="fill:#f44d31"/><path d="M44.89,27.28h-.74a.72.72,0,0,1-.73-.73h0a.72.72,0,0,1,.73-.73h.74a.73.73,0,0,1,.73.73h0A.73.73,0,0,1,44.89,27.28Z" style="fill:#f44d31"/><path d="M8.89,20.67l3.9-3.34a4.4,4.4,0,0,1,2.87-1.07h9.9a3.65,3.65,0,0,1,2.79,1.29l3.31,3.86H14.27a12.59,12.59,0,0,1-1.94-.16Z" style="fill:#1e4159"/><path d="M24.75,17.53A1.43,1.43,0,0,0,23.63,17H16.84a1.46,1.46,0,0,0-1,.43l-2.2,2.2a1,1,0,0,0-.31.74h0a1,1,0,0,0,1,1H27.2a.38.38,0,0,0,.29-.61Z" style="fill:#625d6b"/><polygon points="18.44 21.41 16.23 21.41 17.7 17 19.17 17 18.44 21.41" style="fill:#504b5a"/><path d="M28.35,17.55a3.35,3.35,0,0,0-.58-.55h-1.2a.36.36,0,0,0-.28.6L29,20.88a1.48,1.48,0,0,0,1.13.53h1.51Z" style="fill:#625d6b"/><path d="M3,23.61v.74H4.48a.74.74,0,0,0,0-1.47H3.74A.73.73,0,0,0,3,23.61Z" style="fill:#ff6464"/></svg>