<svg id="Layer_1" data-name="Layer 1" xmlns="http://www.w3.org/2000/svg" viewBox="0 0 48 48"><title>Artboard 1 copy 31</title><path d="M26.32,8.75l4.25,8.61a1.56,1.56,0,0,0,1.16.84l9.49,1.38a1.53,1.53,0,0,1,.85,2.61l-6.87,6.7a1.52,1.52,0,0,0-.44,1.36l1.62,9.46a1.53,1.53,0,0,1-2.22,1.61l-8.5-4.46a1.49,1.49,0,0,0-1.42,0l-8.5,4.46a1.53,1.53,0,0,1-2.22-1.61l1.62-9.46a1.52,1.52,0,0,0-.44-1.36l-6.87-6.7a1.53,1.53,0,0,1,.85-2.61l9.49-1.38a1.56,1.56,0,0,0,1.16-.84l4.25-8.61A1.53,1.53,0,0,1,26.32,8.75Z" style="fill:#1e4159"/></svg>