<svg id="Layer_1" data-name="Layer 1" xmlns="http://www.w3.org/2000/svg" viewBox="0 0 48 48"><title>Artboard 1 copy 11</title><path d="M35.11,43.7a2.57,2.57,0,0,1-1.2-.3l-9.83-5.17L14.26,43.4a2.59,2.59,0,0,1-2.73-.2,2.56,2.56,0,0,1-1-2.53l1.87-10.94L4.44,22a2.58,2.58,0,0,1,1.43-4.41l11-1.6L21.77,6a2.55,2.55,0,0,1,2.31-1.44h0A2.56,2.56,0,0,1,26.4,6l4.91,10,11,1.6A2.58,2.58,0,0,1,43.73,22l-7.95,7.74,1.88,10.94a2.6,2.6,0,0,1-2.55,3Zm-11-8.52a2.58,2.58,0,0,1,1.21.3l9.27,4.87L32.79,30a2.58,2.58,0,0,1,.74-2.29L41,20.42l-10.37-1.5a2.59,2.59,0,0,1-2-1.42L24.08,8.11,19.45,17.5a2.61,2.61,0,0,1-1.95,1.42L7.13,20.42l7.5,7.32A2.6,2.6,0,0,1,15.38,30L13.61,40.35l9.27-4.87A2.57,2.57,0,0,1,24.08,35.18Z"/></svg>