<svg id="Layer_1" data-name="Layer 1" xmlns="http://www.w3.org/2000/svg" viewBox="0 0 48 48"><title>Artboard 1 copy 33</title><path d="M43.66,22.47c-1.39-.85-5.85-1.94-12.11-1.94l-3.31-3.86a3.66,3.66,0,0,0-2.79-1.28H15.54a4.39,4.39,0,0,0-2.87,1.06l-3.9,3.34-4.16.6a1.45,1.45,0,0,0-1.22,1.1l-.5,2,11,5.14H44.77V24.46A2.33,2.33,0,0,0,43.66,22.47Z" style="fill:#1e4159"/><path d="M44.77,24.94c0-1.47-2.2-2.94-12.49-2.94H3.63a.74.74,0,0,0-.74.73v4.41l14,2.2H44.77v-4.4Z" style="fill:#1e4159"/><path d="M44.77,27.87H10.32L3.79,26.42a.74.74,0,0,0-.88.56.73.73,0,0,0,.56.88l6.61,1.47H44.77a.72.72,0,0,0,.73-.73A.73.73,0,0,0,44.77,27.87Z" style="fill:#f44d31"/><circle cx="38.16" cy="27.87" r="3.67" style="fill:#ededee"/><path d="M38.16,32.28a4.41,4.41,0,1,1,4.41-4.41A4.41,4.41,0,0,1,38.16,32.28Zm0-7.34a2.94,2.94,0,1,0,2.94,2.93A2.94,2.94,0,0,0,38.16,24.94Z" style="fill:#504b5a"/><circle cx="38.16" cy="27.87" r="1.47" style="fill:#dcdbde"/><circle cx="10.24" cy="27.87" r="3.67" style="fill:#ededee"/><path d="M10.24,32.28a4.41,4.41,0,1,1,4.41-4.41A4.41,4.41,0,0,1,10.24,32.28Zm0-7.34a2.94,2.94,0,1,0,2.94,2.93A2.94,2.94,0,0,0,10.24,24.94Z" style="fill:#504b5a"/><circle cx="10.24" cy="27.87" r="1.47" style="fill:#dcdbde"/><path d="M32.28,26.41H16.85a.74.74,0,0,1-.73-.74h0a.73.73,0,0,1,.73-.73H32.28a.72.72,0,0,1,.73.73h0A.73.73,0,0,1,32.28,26.41Z" style="fill:#f44d31"/><path d="M44.77,26.41H44a.74.74,0,0,1-.73-.74h0a.73.73,0,0,1,.73-.73h.74a.72.72,0,0,1,.73.73h0A.73.73,0,0,1,44.77,26.41Z" style="fill:#f44d31"/><path d="M8.77,19.79l3.9-3.34a4.39,4.39,0,0,1,2.87-1.06h9.91a3.66,3.66,0,0,1,2.79,1.28l3.31,3.86H14.15a12.46,12.46,0,0,1-1.93-.16Z" style="fill:#1e4159"/><path d="M24.64,16.65a1.45,1.45,0,0,0-1.13-.53H16.72a1.44,1.44,0,0,0-1,.43l-2.21,2.2a1.07,1.07,0,0,0-.3.74h0a1,1,0,0,0,1,1H27.09a.37.37,0,0,0,.28-.6Z" style="fill:#625d6b"/><polygon points="18.32 20.53 16.12 20.53 17.59 16.12 19.05 16.12 18.32 20.53" style="fill:#504b5a"/><path d="M28.24,16.67a3.81,3.81,0,0,0-.59-.55h-1.2a.36.36,0,0,0-.28.6L28.9,20a1.48,1.48,0,0,0,1.13.53h1.52Z" style="fill:#625d6b"/><path d="M2.89,22.73v.74H4.36a.74.74,0,1,0,0-1.47H3.63A.74.74,0,0,0,2.89,22.73Z" style="fill:#ff6464"/><path d="M40.18,6.28h0a2.73,2.73,0,0,0-3.85,0l-12,12a2.74,2.74,0,0,1-3.86,0l-12-12a2.73,2.73,0,0,0-3.85,0h0a2.72,2.72,0,0,0,0,3.86l12,12a2.73,2.73,0,0,1,0,3.85l-12,12a2.72,2.72,0,0,0,0,3.86h0a2.73,2.73,0,0,0,3.85,0l12-12a2.72,2.72,0,0,1,3.86,0l12,12a2.73,2.73,0,0,0,3.85,0h0a2.72,2.72,0,0,0,0-3.86l-12-12a2.71,2.71,0,0,1,0-3.85l12-12A2.72,2.72,0,0,0,40.18,6.28Z" style="fill:#f44d31"/></svg>