<svg id="Layer_1" data-name="Layer 1" xmlns="http://www.w3.org/2000/svg" viewBox="0 0 48 48"><title>Artboard 1 copy 33</title><path d="M44.49,26.46A6.21,6.21,0,0,0,43.19,23,10.75,10.75,0,0,1,41.12,19a49.48,49.48,0,0,0-3.46-7.44,6,6,0,0,0-4.37-2.88,122.77,122.77,0,0,0-18.79,0,6,6,0,0,0-4.37,2.88A49.69,49.69,0,0,0,6.68,19,10.75,10.75,0,0,1,4.61,23a6.14,6.14,0,0,0-1.3,3.46C3.18,29.19,4,29.78,4.68,36a1,1,0,0,0,1,.85H42.17a1,1,0,0,0,.95-.85c.2-1.73.79-5.24.79-5.24A12.83,12.83,0,0,0,44.49,26.46Z" style="fill:#1e4159"/><path d="M40.35,18.81a52.38,52.38,0,0,0-3.25-6.89A5.39,5.39,0,0,0,33.21,9.3a119.32,119.32,0,0,0-18.62,0,5.39,5.39,0,0,0-3.89,2.62,54.7,54.7,0,0,0-3.27,6.89A210.35,210.35,0,0,0,40.35,18.81Z" style="fill:#c7e2ef"/><path d="M38.8,21.91a6.31,6.31,0,0,0-1.14.5,14,14,0,0,1-1.83.88c-1.06.4-1.24,1-1.24,1l-.09.12A1.69,1.69,0,0,0,36.17,27a20.64,20.64,0,0,0,4.6-1.23,1.67,1.67,0,0,0,1-1.12l0-.15A2.31,2.31,0,0,0,38.8,21.91Z" style="fill:#fff"/><path d="M41,31.42H38.71a.39.39,0,0,0-.28.66l2.28,2.28a.38.38,0,0,0,.66-.27V31.81A.39.39,0,0,0,41,31.42Z" style="fill:#f44d31"/><path d="M43.12,36a1,1,0,0,1-1,.85H37.78v2.55A1.63,1.63,0,0,0,39.41,41h2.76a1.63,1.63,0,0,0,1.63-1.63v-8C43.62,32.49,43.27,34.69,43.12,36Z" style="fill:#454545"/><path d="M45.05,17a1.32,1.32,0,0,0-1.3-1h-1.1a1.28,1.28,0,0,0-1.28,1.28v.78h-.58l.33.8h1.29a4.55,4.55,0,0,0,1.92-.42A1.28,1.28,0,0,0,45.05,17Z" style="fill:#1e4159"/><circle cx="39.52" cy="23.97" r="1.61" style="fill:#f44d31"/><circle cx="36.29" cy="25.24" r="1.18" style="fill:#f44d31"/><polygon points="33.23 25.24 31.39 28.45 16.41 28.45 14.57 25.24 33.23 25.24" style="fill:#6f6f6f"/><path d="M13.29,24.41a.47.47,0,0,0-.09-.12s-.18-.6-1.23-1a14.75,14.75,0,0,1-1.84-.88A5.91,5.91,0,0,0,9,21.91a2.31,2.31,0,0,0-3,2.57l0,.15a1.65,1.65,0,0,0,1,1.12A20.32,20.32,0,0,0,11.63,27,1.68,1.68,0,0,0,13.29,24.41Z" style="fill:#fff"/><path d="M9.09,31.42H6.81a.39.39,0,0,0-.38.39v2.28a.38.38,0,0,0,.65.27l2.28-2.28A.39.39,0,0,0,9.09,31.42Z" style="fill:#f44d31"/><path d="M39.08,35.41c-2.37-4.11-5.1-4-5.1-4H13.82s-2.73-.12-5.11,4H4.61l0,.52a1,1,0,0,0,1,.88H42.18a1,1,0,0,0,1-.88l0-.52Z" style="fill:#777"/><path d="M5.63,36.81a1,1,0,0,1-1-.85c-.15-1.26-.5-3.47-.68-4.57v8A1.63,1.63,0,0,0,5.63,41H8.39A1.63,1.63,0,0,0,10,39.36V36.81Z" style="fill:#454545"/><path d="M6.43,18.09v-.78A1.28,1.28,0,0,0,5.15,16H4.05a1.31,1.31,0,0,0-1.3,1,1.28,1.28,0,0,0,.72,1.44,4.71,4.71,0,0,0,1.92.42H6.68l.33-.8Z" style="fill:#1e4159"/><circle cx="8.28" cy="23.97" r="1.61" style="fill:#f44d31"/><circle cx="11.51" cy="25.24" r="1.18" style="fill:#f44d31"/><path d="M32.44,32.55H15.36a.49.49,0,0,0-.48.48.48.48,0,0,0,.48.48H32.43a.48.48,0,1,0,0-1Z" style="fill:#6f6f6f"/><path d="M32.44,34.48H15.36a.48.48,0,1,0,0,1H32.43a.48.48,0,1,0,0-1Z" style="fill:#6f6f6f"/><path d="M12.28,12.92l-.66-.62.61-.66a5.75,5.75,0,0,1,4.19-1.83H31.58a5.7,5.7,0,0,1,4.05,1.68l.17.17-.64.64L35,12.13a4.75,4.75,0,0,0-3.4-1.41H16.42a4.8,4.8,0,0,0-3.52,1.54Z" style="fill:#a2c9dd"/><path d="M37.38,11.15h0a2.09,2.09,0,0,0-2.93,0l-9.09,9.1a2.06,2.06,0,0,1-2.92,0l-9.1-9.1a2.08,2.08,0,0,0-2.92,0h0a2.07,2.07,0,0,0,0,2.93l9.09,9.09a2.06,2.06,0,0,1,0,2.92l-9.09,9.1a2.06,2.06,0,0,0,0,2.92h0a2.06,2.06,0,0,0,2.92,0L22.44,29a2.06,2.06,0,0,1,2.92,0l9.09,9.09a2.07,2.07,0,0,0,2.93,0h0a2.08,2.08,0,0,0,0-2.92l-9.1-9.1a2.08,2.08,0,0,1,0-2.92l9.1-9.09A2.09,2.09,0,0,0,37.38,11.15Z" style="fill:#f44d31"/></svg>