<svg id="Layer_1" data-name="Layer 1" xmlns="http://www.w3.org/2000/svg" viewBox="0 0 48 48"><title>Artboard 1 copy 38</title><path d="M24.16,44.37A20.25,20.25,0,1,1,44.41,24.12,20.27,20.27,0,0,1,24.16,44.37Zm0-38.5A18.25,18.25,0,1,0,42.41,24.12,18.27,18.27,0,0,0,24.16,5.87Z" style="fill:#f44d31"/><path d="M37.52,22.91c-.9-.55-3.8-1.26-7.87-1.26L27.5,19.14a2.37,2.37,0,0,0-1.81-.83H19.26a2.84,2.84,0,0,0-1.87.69l-2.53,2.17-2.71.39a1,1,0,0,0-.79.71L11,23.56,18.2,26.9h20V24.2A1.51,1.51,0,0,0,37.52,22.91Z" style="fill:#1e4159"/><path d="M38.24,24.51c0-1-1.43-1.91-8.11-1.91H11.52a.48.48,0,0,0-.48.48v2.86l9.07,1.44H38.24V24.51Z" style="fill:#1e4159"/><path d="M38.24,26.42H15.87l-4.25-.94a.48.48,0,0,0-.57.36.49.49,0,0,0,.36.57l4.3.95.1,0H38.24a.48.48,0,0,0,.48-.48A.47.47,0,0,0,38.24,26.42Z" style="fill:#f44d31"/><circle cx="33.95" cy="26.42" r="2.39" style="fill:#ededee"/><path d="M34,29.28a2.86,2.86,0,1,1,2.86-2.86A2.87,2.87,0,0,1,34,29.28Zm0-4.77a1.91,1.91,0,1,0,1.91,1.91A1.91,1.91,0,0,0,34,24.51Z" style="fill:#504b5a"/><circle cx="33.95" cy="26.42" r="0.95" style="fill:#dcdbde"/><circle cx="15.81" cy="26.42" r="2.39" style="fill:#ededee"/><path d="M15.81,29.28a2.86,2.86,0,1,1,2.87-2.86A2.86,2.86,0,0,1,15.81,29.28Zm0-4.77a1.91,1.91,0,1,0,1.91,1.91A1.92,1.92,0,0,0,15.81,24.51Z" style="fill:#504b5a"/><circle cx="15.81" cy="26.42" r="0.95" style="fill:#dcdbde"/><path d="M30.13,25.47h-10a.48.48,0,0,1-.48-.48h0a.48.48,0,0,1,.48-.48h10a.49.49,0,0,1,.48.48h0A.49.49,0,0,1,30.13,25.47Z" style="fill:#f44d31"/><path d="M38.24,25.47h-.48a.48.48,0,0,1-.47-.48h0a.48.48,0,0,1,.47-.48h.48a.48.48,0,0,1,.48.48h0A.48.48,0,0,1,38.24,25.47Z" style="fill:#f44d31"/><path d="M14.86,21.17,17.39,19a2.84,2.84,0,0,1,1.87-.69h6.43a2.37,2.37,0,0,1,1.81.83l2.15,2.51H18.35a8.66,8.66,0,0,1-1.25-.1Z" style="fill:#1e4159"/><path d="M25.17,19.13a1,1,0,0,0-.74-.34H20a1,1,0,0,0-.68.28L17.92,20.5a.65.65,0,0,0-.2.47h0a.67.67,0,0,0,.68.68h8.36a.24.24,0,0,0,.18-.39Z" style="fill:#625d6b"/><polygon points="21.06 21.65 19.63 21.65 20.59 18.79 21.54 18.79 21.06 21.65" style="fill:#504b5a"/><path d="M27.5,19.14a2.11,2.11,0,0,0-.38-.35h-.78a.24.24,0,0,0-.18.39l1.77,2.13a1,1,0,0,0,.74.34h1Z" style="fill:#625d6b"/><path d="M11,23.08v.48h1a.48.48,0,0,0,0-1h-.48A.48.48,0,0,0,11,23.08Z" style="fill:#ff6464"/></svg>