<svg id="Layer_1" data-name="Layer 1" xmlns="http://www.w3.org/2000/svg" viewBox="0 0 48 48"><title>Artboard 1 copy 18</title><path d="M22.39,38.55H17V10.36l.84-.14a41.53,41.53,0,0,1,6.77-.52c3.58,0,6.32.83,8.14,2.47a8.18,8.18,0,0,1,2.67,6.32A8.83,8.83,0,0,1,33,24.88c-2,2.08-5.1,3.23-8.87,3.23A17.57,17.57,0,0,1,22.39,28Zm-3.44-2h1.44v-11l1.25.31a10.77,10.77,0,0,0,2.52.21c3.21,0,5.84-.93,7.42-2.61a6.9,6.9,0,0,0,1.79-5,6.21,6.21,0,0,0-2-4.82c-1.46-1.31-3.75-2-6.82-2a40,40,0,0,0-5.61.37Zm5.29-11.21a12.34,12.34,0,0,1-3.1-.31l-.75-.19V12.93l.75-.19a15.08,15.08,0,0,1,3.5-.32c4.56,0,7.29,2.33,7.29,6.23C31.93,22.84,29.05,25.34,24.24,25.34Zm-1.85-2.1a13.9,13.9,0,0,0,1.85.1c2.12,0,5.69-.61,5.69-4.69,0-3.49-2.88-4.23-5.29-4.23a18.13,18.13,0,0,0-2.25.12Z"/><path d="M24.16,44.37A20.25,20.25,0,1,1,44.41,24.12,20.27,20.27,0,0,1,24.16,44.37Zm0-38.5A18.25,18.25,0,1,0,42.41,24.12,18.27,18.27,0,0,0,24.16,5.87Z"/></svg>