<svg id="Layer_1" data-name="Layer 1" xmlns="http://www.w3.org/2000/svg" viewBox="0 0 48 48"><title>Artboard 1 copy 32</title><path d="M44.16,27a6.16,6.16,0,0,0-1.3-3.46,10.75,10.75,0,0,1-2.07-4.05,50.73,50.73,0,0,0-3.45-7.44A6,6,0,0,0,33,9.18a125.24,125.24,0,0,0-18.78,0,6,6,0,0,0-4.37,2.88A49.48,49.48,0,0,0,6.35,19.5a10.75,10.75,0,0,1-2.07,4.05A6.24,6.24,0,0,0,3,27c-.13,2.73.66,3.33,1.37,9.5a1,1,0,0,0,1,.85H41.84a1,1,0,0,0,.95-.85c.2-1.73.79-5.24.79-5.24A12.83,12.83,0,0,0,44.16,27Z" style="fill:#1e4159"/><path d="M40,19.36a53,53,0,0,0-3.25-6.89,5.4,5.4,0,0,0-3.89-2.62,120.56,120.56,0,0,0-18.62,0,5.42,5.42,0,0,0-3.89,2.62,53.4,53.4,0,0,0-3.26,6.89A210.22,210.22,0,0,0,40,19.36Z" style="fill:#c7e2ef"/><path d="M38.47,22.46a6.61,6.61,0,0,0-1.13.5,14.75,14.75,0,0,1-1.84.88c-1.06.4-1.23,1-1.23,1l-.1.12a1.69,1.69,0,0,0,1.67,2.57,20.1,20.1,0,0,0,4.6-1.23,1.67,1.67,0,0,0,1-1.12l0-.15A2.31,2.31,0,0,0,38.47,22.46Z" style="fill:#fff"/><path d="M40.66,32H38.38a.38.38,0,0,0-.27.66l2.28,2.28a.38.38,0,0,0,.65-.28V32.36A.38.38,0,0,0,40.66,32Z" style="fill:#f44d31"/><path d="M42.79,36.51a1,1,0,0,1-.95.85H37.45v2.55a1.63,1.63,0,0,0,1.63,1.63h2.76a1.63,1.63,0,0,0,1.63-1.63v-8C43.29,33,42.94,35.25,42.79,36.51Z" style="fill:#454545"/><path d="M44.72,17.58a1.32,1.32,0,0,0-1.3-1h-1.1A1.28,1.28,0,0,0,41,17.86v.79h-.58l.33.79h1.29A4.55,4.55,0,0,0,44,19,1.27,1.27,0,0,0,44.72,17.58Z" style="fill:#1e4159"/><circle cx="39.19" cy="24.52" r="1.61" style="fill:#f44d31"/><circle cx="35.96" cy="25.79" r="1.18" style="fill:#f44d31"/><polygon points="32.91 25.79 31.06 29 16.08 29 14.24 25.79 32.91 25.79" style="fill:#6f6f6f"/><path d="M13,25l-.09-.12s-.18-.6-1.24-1A14,14,0,0,1,9.81,23a7.1,7.1,0,0,0-1.14-.5,2.31,2.31,0,0,0-3,2.57l0,.15a1.67,1.67,0,0,0,1,1.12,20.1,20.1,0,0,0,4.6,1.23A1.69,1.69,0,0,0,13,25Z" style="fill:#fff"/><path d="M8.77,32H6.48a.38.38,0,0,0-.38.38v2.28a.39.39,0,0,0,.66.28L9,32.64A.39.39,0,0,0,8.77,32Z" style="fill:#f44d31"/><path d="M38.76,36c-2.38-4.11-5.11-4-5.11-4H13.49s-2.73-.13-5.1,4H4.28l0,.53a1,1,0,0,0,1,.87H41.85a1,1,0,0,0,1-.87l0-.53Z" style="fill:#777"/><path d="M5.31,37.36a1,1,0,0,1-1-.85c-.14-1.26-.5-3.47-.68-4.57v8a1.63,1.63,0,0,0,1.64,1.63H8.06a1.63,1.63,0,0,0,1.63-1.63V37.36Z" style="fill:#454545"/><path d="M6.1,18.65v-.79a1.28,1.28,0,0,0-1.28-1.28H3.72a1.33,1.33,0,0,0-1.3,1A1.28,1.28,0,0,0,3.14,19a4.56,4.56,0,0,0,1.93.42H6.35l.33-.8H6.1Z" style="fill:#1e4159"/><circle cx="7.95" cy="24.52" r="1.61" style="fill:#f44d31"/><circle cx="11.18" cy="25.79" r="1.18" style="fill:#f44d31"/><path d="M32.11,33.1H15a.49.49,0,1,0,0,1H32.11a.49.49,0,0,0,0-1Z" style="fill:#6f6f6f"/><path d="M32.11,35H15a.49.49,0,1,0,0,1H32.11a.49.49,0,0,0,0-1Z" style="fill:#6f6f6f"/><path d="M12,13.47l-.67-.62.61-.66a5.75,5.75,0,0,1,4.19-1.83H31.26a5.67,5.67,0,0,1,4,1.68l.17.17-.64.65-.17-.17a4.78,4.78,0,0,0-3.4-1.41H16.09a4.84,4.84,0,0,0-3.52,1.53Z" style="fill:#a2c9dd"/></svg>