<svg id="Layer_1" data-name="Layer 1" xmlns="http://www.w3.org/2000/svg" viewBox="0 0 48 48"><title>Artboard 1 copy 8</title><circle cx="23.94" cy="11.48" r="6.42" style="fill:#fff"/><path d="M23.93,18.91a7.43,7.43,0,1,1,7.43-7.43A7.43,7.43,0,0,1,23.93,18.91Zm0-12.85a5.43,5.43,0,1,0,5.43,5.42A5.42,5.42,0,0,0,23.93,6.06Z" style="fill:#231f20"/><path d="M36.43,41.34V31.25a9,9,0,0,0-9-9h-7a9,9,0,0,0-9,9V41.34" style="fill:none"/><path d="M38.43,31.25a11,11,0,0,0-11-11h-7a11,11,0,0,0-11,11V41.34h2V31.25a9,9,0,0,1,9-9h7a9,9,0,0,1,9,9V41.34h2Z" style="fill:#231f20"/></svg>