<svg id="Layer_1" data-name="Layer 1" xmlns="http://www.w3.org/2000/svg" viewBox="0 0 48 48"><title>Artboard 1 copy 28</title><circle cx="40.43" cy="15.09" r="3.04" style="fill:#1e4159"/><path d="M42.2,18.81H38.89a4.25,4.25,0,0,0-3.65,2.11,8.27,8.27,0,0,1,2.15,5.56v1.36h9.07V23.07A4.26,4.26,0,0,0,42.2,18.81Z" style="fill:#1e4159"/><circle cx="8.16" cy="14.86" r="3.04" style="fill:#1e4159"/><path d="M6.5,19H9.81a4.28,4.28,0,0,1,3.66,2.11,8.23,8.23,0,0,0-2.16,5.56v1.36H2.24V23.29A4.26,4.26,0,0,1,6.5,19Z" style="fill:#1e4159"/><circle cx="24.35" cy="11.25" r="5.91" style="fill:#1e4159"/><path d="M35.85,36.55V27.26A8.3,8.3,0,0,0,27.57,19H21.13a8.3,8.3,0,0,0-8.28,8.28v9.29" style="fill:#1e4159"/></svg>