<svg id="Layer_1" data-name="Layer 1" xmlns="http://www.w3.org/2000/svg" viewBox="0 0 48 48"><title>Artboard 1 copy 20</title><path d="M16.45,25.16h-.32l-1.84-1.33a2.34,2.34,0,0,0-2.83.06L9.85,25.16H9.51a3.47,3.47,0,0,1-3.08-5.05L10,13.16a3.46,3.46,0,0,1,3.08-1.88h0a3.46,3.46,0,0,1,3.08,2l3.36,6.94a3.47,3.47,0,0,1-3.12,5Zm-3.53-3.77a4.32,4.32,0,0,1,2.54.82l1.28.92a1.46,1.46,0,0,0,1-.66,1.42,1.42,0,0,0,.08-1.41l-3.36-6.95a1.45,1.45,0,0,0-1.3-.83,1.37,1.37,0,0,0-1.32.79L8.2,21a1.43,1.43,0,0,0,.05,1.43,1.45,1.45,0,0,0,.95.68l1-.81A4.34,4.34,0,0,1,12.92,21.39Z"/><path d="M5.37,17.77a2.91,2.91,0,0,1-2.66-2.92A2.88,2.88,0,0,1,5.12,11.6a2.48,2.48,0,0,1,2,.87,3.44,3.44,0,0,1,.81,2h0a2.88,2.88,0,0,1-2.41,3.25Zm-.1-4.18h0c-.25,0-.59.46-.55,1.12s.43,1,.69,1,.59-.46.55-1.12a1.48,1.48,0,0,0-.32-.84A.53.53,0,0,0,5.27,13.59Z"/><path d="M21.2,17.77a2.92,2.92,0,0,1-2.67-2.92,2.88,2.88,0,0,1,2.41-3.25,2.47,2.47,0,0,1,2,.87,3.44,3.44,0,0,1,.81,2,2.88,2.88,0,0,1-2.41,3.25Zm-.11-4.18h0c-.25,0-.59.46-.55,1.12s.43,1,.69,1,.59-.46.55-1.12h0a1.41,1.41,0,0,0-.32-.84A.53.53,0,0,0,21.09,13.59Z"/><path d="M9.51,11.12a2.75,2.75,0,0,1-2.06-1,3.81,3.81,0,0,1-.92-2.31A3.24,3.24,0,0,1,9.22,4.16a2.76,2.76,0,0,1,2.22,1,3.89,3.89,0,0,1,.93,2.31,3.26,3.26,0,0,1-2.7,3.67Zm-.13-5h0c-.44,0-.88.67-.83,1.54A1.87,1.87,0,0,0,9,8.82a.73.73,0,0,0,.59.3c.44,0,.89-.67.83-1.54a1.9,1.9,0,0,0-.43-1.12A.8.8,0,0,0,9.38,6.16Z"/><path d="M16.91,11.12a2.77,2.77,0,0,1-2.07-1,3.88,3.88,0,0,1-.92-2.31,3.86,3.86,0,0,1,.62-2.42,2.64,2.64,0,0,1,4.3-.27,3.88,3.88,0,0,1,.92,2.31,3.26,3.26,0,0,1-2.7,3.67Zm-.13-5h0a.77.77,0,0,0-.55.38,1.83,1.83,0,0,0-.28,1.16,1.86,1.86,0,0,0,.42,1.12.76.76,0,0,0,.6.3c.43,0,.88-.67.82-1.54a1.89,1.89,0,0,0-.42-1.12A.83.83,0,0,0,16.78,6.16Z"/><path d="M37.79,43.66h-.33l-1.84-1.33a2.34,2.34,0,0,0-2.83.06l-1.6,1.27h-.35a3.47,3.47,0,0,1-3.08-5.06l3.59-6.94a3.43,3.43,0,0,1,3.07-1.88h0a3.44,3.44,0,0,1,3.07,2l3.36,6.94a3.47,3.47,0,0,1-3.11,5Zm-3.54-3.77a4.3,4.3,0,0,1,2.54.82l1.28.92A1.48,1.48,0,0,0,39,41a1.42,1.42,0,0,0,.07-1.41l-3.36-7a1.45,1.45,0,0,0-1.3-.83,1.39,1.39,0,0,0-1.32.79l-3.58,7a1.48,1.48,0,0,0,1,2.11l1-.81A4.36,4.36,0,0,1,34.25,39.89Z"/><path d="M26.71,36.27A2.93,2.93,0,0,1,24,33.35a2.88,2.88,0,0,1,2.41-3.25,2.47,2.47,0,0,1,2,.87,3.39,3.39,0,0,1,.82,2h0a3.44,3.44,0,0,1-.55,2.13,2.48,2.48,0,0,1-1.87,1.12Zm-.11-4.18h0c-.25,0-.59.46-.54,1.12s.41,1,.68,1a.49.49,0,0,0,.34-.24,1.48,1.48,0,0,0,.21-.88h0A1.41,1.41,0,0,0,27,32.3.53.53,0,0,0,26.6,32.09Z"/><path d="M42.53,36.27a2.93,2.93,0,0,1-2.67-2.92,2.89,2.89,0,0,1,2.42-3.25,2.46,2.46,0,0,1,2,.87,3.39,3.39,0,0,1,.82,2h0a3.44,3.44,0,0,1-.55,2.13,2.48,2.48,0,0,1-1.87,1.12Zm-.11-4.18h0c-.25,0-.59.46-.54,1.12s.41,1,.68,1a.49.49,0,0,0,.34-.24,1.41,1.41,0,0,0,.21-.88h0a1.41,1.41,0,0,0-.32-.84A.53.53,0,0,0,42.42,32.09Z"/><path d="M30.84,29.62a2.77,2.77,0,0,1-2.06-1,3.81,3.81,0,0,1-.92-2.31,3.26,3.26,0,0,1,2.69-3.67,2.77,2.77,0,0,1,2.22,1A3.89,3.89,0,0,1,33.7,26h0a3.86,3.86,0,0,1-.62,2.42A2.76,2.76,0,0,1,31,29.62Zm-.12-5h0c-.43,0-.88.67-.83,1.54a1.94,1.94,0,0,0,.43,1.12.74.74,0,0,0,.59.3.77.77,0,0,0,.55-.38,1.83,1.83,0,0,0,.28-1.16h0A2,2,0,0,0,31.28,25,.85.85,0,0,0,30.72,24.66Z"/><path d="M38.24,29.62a2.75,2.75,0,0,1-2.06-1,3.89,3.89,0,0,1-.93-2.31A3.26,3.26,0,0,1,38,22.66a2.77,2.77,0,0,1,2.22,1A3.81,3.81,0,0,1,41.09,26a3.24,3.24,0,0,1-2.69,3.67Zm-.13-5h0c-.44,0-.89.67-.83,1.54a1.87,1.87,0,0,0,.43,1.12.74.74,0,0,0,.59.3c.44,0,.88-.67.83-1.54A2,2,0,0,0,38.67,25,.83.83,0,0,0,38.11,24.66Z"/></svg>