<svg id="Layer_1" data-name="Layer 1" xmlns="http://www.w3.org/2000/svg" viewBox="0 0 48 48"><title>Artboard 1 copy 40</title><path d="M24.29,10.9a34.6,34.6,0,0,0-11.41,2.18V25c0,4.35,2.85,6.32,6,8.7H29.73c3.13-2.38,6-4.35,6-8.7v-12A34.62,34.62,0,0,0,24.29,10.9Z" style="fill:#1e4159"/><circle cx="18.31" cy="21.78" r="1.63" style="fill:#f44d31"/><circle cx="30.28" cy="21.78" r="1.63" style="fill:#f44d31"/><path d="M25.93,37.55H22.66a4.35,4.35,0,0,1-4.35-4.35V28.85h12V33.2A4.35,4.35,0,0,1,25.93,37.55Z" style="fill:#1e4159"/><path d="M24.29,22.86h0a3.05,3.05,0,0,0-2.54,1.37c-1.42,2.14-4,6.14-4,7a4.21,4.21,0,0,0,6.52,3,4.22,4.22,0,0,0,6.53-3c0-.86-2.56-4.86-4-7A3.06,3.06,0,0,0,24.29,22.86Z" style="fill:#35779b"/><path d="M27,29.15c0,1.33-2.72,2.41-2.72,2.41s-2.71-1.08-2.71-2.41,1.21-1.94,2.71-1.94S27,27.81,27,29.15Z" style="fill:#f44d31"/><path d="M16.86,13.35l-4.43,11.1a.82.82,0,0,1-1.48.09L7.76,18.87a2.37,2.37,0,0,1,.34-2.81l5.45-5.85a1.23,1.23,0,0,1,1.85,0l1.2,1.44A1.6,1.6,0,0,1,16.86,13.35Z" style="fill:#35779b"/><path d="M31.73,13.35l4.44,11.1a.82.82,0,0,0,1.48.09l3.19-5.67a2.37,2.37,0,0,0-.34-2.81L35,10.21a1.22,1.22,0,0,0-1.84,0L32,11.7A1.62,1.62,0,0,0,31.73,13.35Z" style="fill:#35779b"/></svg>