<svg id="Layer_1" data-name="Layer 1" xmlns="http://www.w3.org/2000/svg" viewBox="0 0 48 48"><title>search copy</title><circle cx="19.42" cy="18.8" r="16.12" style="fill:#1e4159"/><circle cx="19.42" cy="18.8" r="13.69" style="fill:#2b617f"/><path d="M26.85,11.44l-1.72-.89a12.71,12.71,0,0,0-11.55,0l-1.74.89-1-1.91,1.74-.89a14.8,14.8,0,0,1,13.51,0l1.72.88Z" style="fill:#f44d31"/><path d="M33.62,26.19h5a0,0,0,0,1,0,0V43.52a1.3,1.3,0,0,1-1.3,1.3H34.92a1.3,1.3,0,0,1-1.3-1.3V26.19a0,0,0,0,1,0,0Z" transform="translate(-14.52 35.95) rotate(-45)" style="fill:#1e4159"/></svg>