<svg id="Layer_1" data-name="Layer 1" xmlns="http://www.w3.org/2000/svg" viewBox="0 0 48 48"><title>Artboard 1 copy 26</title><polyline points="8.79 7.53 17.82 11.06 17.82 39.3" style="fill:none;stroke:#231f20;stroke-miterlimit:10;stroke-width:2px"/><polyline points="24.74 7.53 33.77 11.06 33.77 39.3" style="fill:none;stroke:#231f20;stroke-miterlimit:10;stroke-width:2px"/><line x1="18.08" y1="17.47" x2="33.77" y2="17.47" style="fill:none;stroke:#231f20;stroke-miterlimit:10;stroke-width:2px"/><line x1="18.08" y1="27.93" x2="33.77" y2="27.93" style="fill:none;stroke:#231f20;stroke-miterlimit:10;stroke-width:2px"/><path d="M3,33.16c2.13,0,2.13,1.7,4.26,1.7s2.13-1.7,4.26-1.7,2.13,1.7,4.26,1.7,2.13-1.7,4.26-1.7,2.13,1.7,4.26,1.7,2.13-1.7,4.26-1.7,2.13,1.7,4.26,1.7,2.14-1.7,4.27-1.7,2.13,1.7,4.27,1.7,2.13-1.7,4.26-1.7" style="fill:none;stroke:#231f20;stroke-miterlimit:10;stroke-width:2px"/></svg>