<svg id="Layer_1" data-name="Layer 1" xmlns="http://www.w3.org/2000/svg" viewBox="0 0 48 48"><title>Artboard 1 copy 46</title><polygon points="18.82 39.3 16.82 39.3 16.82 11.74 8.43 8.46 9.16 6.6 18.82 10.38 18.82 39.3" style="fill:#1e4159"/><polygon points="34.77 39.3 32.77 39.3 32.77 11.74 24.38 8.46 25.11 6.6 34.77 10.38 34.77 39.3" style="fill:#1e4159"/><rect x="18.08" y="16.47" width="15.69" height="2" style="fill:#1e4159"/><rect x="18.08" y="26.93" width="15.69" height="2" style="fill:#1e4159"/><path d="M41.4,35.86a4,4,0,0,1-2.76-1.07,2.12,2.12,0,0,0-3,0,4.08,4.08,0,0,1-5.51,0,2.09,2.09,0,0,0-1.51-.63,2,2,0,0,0-1.5.63,4.08,4.08,0,0,1-5.51,0,2.12,2.12,0,0,0-3,0,4.08,4.08,0,0,1-5.51,0,2.07,2.07,0,0,0-1.5-.63,2.05,2.05,0,0,0-1.51.63,4.08,4.08,0,0,1-5.51,0A2,2,0,0,0,3,34.16v-2a4,4,0,0,1,2.75,1.07,2.09,2.09,0,0,0,1.51.63,2.07,2.07,0,0,0,1.5-.63,4.08,4.08,0,0,1,5.51,0,2.09,2.09,0,0,0,1.51.63,2.07,2.07,0,0,0,1.5-.63,4.09,4.09,0,0,1,5.52,0,2.07,2.07,0,0,0,1.5.63,2.09,2.09,0,0,0,1.51-.63,4.08,4.08,0,0,1,5.51,0,2.11,2.11,0,0,0,3,0,4.09,4.09,0,0,1,5.52,0,2.08,2.08,0,0,0,1.51.63,2.11,2.11,0,0,0,1.51-.63,4,4,0,0,1,2.75-1.07v2a2.11,2.11,0,0,0-1.51.63A4,4,0,0,1,41.4,35.86Z" style="fill:#3a82aa"/></svg>