<svg id="Layer_1" data-name="Layer 1" xmlns="http://www.w3.org/2000/svg" viewBox="0 0 48 48"><title>Artboard 1 copy 34</title><rect x="14.71" y="36.91" width="17.51" height="2.23" style="fill:#f44d31"/><rect x="10.1" y="6.01" width="26.85" height="30.98" rx="4.73" style="fill:#1e4159"/><rect x="14.74" y="11.88" width="17.58" height="8.72" rx="1.81" style="fill:#f1f2f2"/><rect x="23" y="11.88" width="1.05" height="8.82" style="fill:#1e4159"/><circle cx="16.87" cy="27.99" r="2.2" style="fill:#f1f2f2"/><circle cx="30.72" cy="27.99" r="2.2" style="fill:#f1f2f2"/><polygon points="14.71 39.14 8.51 41.9 12 41.9 17.48 39.01 14.71 39.14" style="fill:#f44d31"/><polygon points="32.62 39.14 38.81 41.9 35.33 41.9 29.84 39.01 32.62 39.14" style="fill:#f44d31"/><polygon points="32.37 40.31 15.04 40.31 15.89 39.84 31.39 39.84 32.37 40.31" style="fill:#1e4159"/><rect x="20.04" y="26.08" width="7.55" height="0.9" style="fill:#f1f2f2"/><rect x="20.04" y="29.03" width="7.55" height="0.9" style="fill:#f1f2f2"/><rect x="16.58" y="8.39" width="14.16" height="1.24" style="fill:#f44d31"/></svg>