<svg id="Layer_1" data-name="Layer 1" xmlns="http://www.w3.org/2000/svg" viewBox="0 0 48 48"><title>Artboard 1 copy 17</title><path d="M44.68,14.66H4.36V3.53a2,2,0,0,1,2-2H42.68a2,2,0,0,1,2,2Zm-38.32-2H42.68V3.53H6.36Z"/><path d="M42.67,45.72H6.39a2,2,0,0,1-2-2V12.81H44.67V43.72A2,2,0,0,1,42.67,45.72Zm-36.28-2H42.67V14.81H6.39Z"/><path d="M23.61,17.86A10.43,10.43,0,1,0,34,28.28,10.43,10.43,0,0,0,23.61,17.86Zm0,18.75a5,5,0,1,1,5-5A5,5,0,0,1,23.61,36.61Zm6.78-3.34a6.88,6.88,0,0,0,.2-1.64,7,7,0,0,0-14,0,6.89,6.89,0,0,0,.21,1.64,8.32,8.32,0,0,1-1.65-5,8.43,8.43,0,1,1,15.2,5Z"/><path d="M21.66,11.46H10.57a2,2,0,0,1-2-2V6.72a2,2,0,0,1,2-2H21.66a2,2,0,0,1,2,2V9.46A2,2,0,0,1,21.66,11.46Zm-11.09-2H21.66V6.72H10.57Z"/></svg>