<svg id="Layer_1" data-name="Layer 1" xmlns="http://www.w3.org/2000/svg" viewBox="0 0 48 48"><title>Artboard 1 copy 36</title><path d="M34.12,28.61l-2.68-.95a22,22,0,0,0-15.14.18l-2,.76h0A2,2,0,0,1,15.47,26L15.6,26a23.94,23.94,0,0,1,16.5-.2l.8.29a2,2,0,0,1,1.22,2.55Z" style="fill:#1e4159"/><path d="M42.23,14.45l-9.57-2.83a30.41,30.41,0,0,0-17.5.08l-9,2.74h0A2,2,0,0,1,7.51,12l7.07-2.16A32.33,32.33,0,0,1,33.22,9.7L40.88,12a2,2,0,0,1,1.35,2.49Z" style="fill:#1e4159"/><path d="M39.84,22.11l-6.45-2.52a25.83,25.83,0,0,0-19.49.26L8.59,22.1h0a2,2,0,0,1,1.07-2.62L13.12,18a27.93,27.93,0,0,1,21-.29l4.57,1.79a2,2,0,0,1,1.14,2.6Z" style="fill:#1e4159"/><circle cx="24.21" cy="34.06" r="5.06" style="fill:#1e4159"/></svg>