<?xml version="1.0" standalone="no"?>
<!DOCTYPE svg PUBLIC "-//W3C//DTD SVG 20010904//EN"
 "http://www.w3.org/TR/2001/REC-SVG-20010904/DTD/svg10.dtd">
<svg version="1.0" xmlns="http://www.w3.org/2000/svg"
 width="288.000000pt" height="288.000000pt" viewBox="0 0 288.000000 288.000000"
 preserveAspectRatio="xMidYMid meet">
<metadata>
Created by potrace 1.11, written by Peter Selinger 2001-2013
</metadata>
<g transform="translate(0.000000,288.000000) scale(0.100000,-0.100000)"
fill="#000000" stroke="none">
<path d="M1218 2467 l-117 -82 0 -58 c-1 -68 -13 -71 138 36 l104 73 404 -183
c222 -101 406 -183 409 -183 2 0 4 26 4 58 l-1 57 -399 180 c-220 99 -406 181
-412 182 -7 1 -66 -35 -130 -80z"/>
<path d="M1221 2333 l-121 -85 0 -54 c0 -30 3 -54 6 -54 3 0 58 36 121 81 63
44 120 79 126 76 22 -9 772 -349 790 -358 15 -9 17 -3 17 56 0 45 -4 65 -13
65 -6 0 -176 75 -377 166 -201 91 -379 171 -397 179 -31 13 -33 12 -152 -72z"/>
<path d="M1218 2197 l-118 -82 0 -58 0 -58 48 33 c26 17 80 56 120 84 l73 53
52 -24 c29 -12 207 -93 397 -180 190 -86 351 -159 358 -162 9 -4 12 10 12 53
l0 59 -403 183 c-221 100 -407 182 -412 182 -6 0 -63 -37 -127 -83z"/>
<path d="M1218 2064 l-118 -85 0 -54 c0 -30 2 -55 5 -55 3 0 53 34 112 76 58
42 112 78 119 81 7 2 192 -77 412 -176 219 -100 402 -181 405 -181 4 0 7 27 7
60 0 34 -4 60 -10 60 -6 0 -185 79 -398 176 -213 97 -394 178 -402 180 -8 2
-68 -35 -132 -82z"/>
<path d="M1222 1932 l-122 -86 0 -58 0 -59 68 48 c37 26 91 65 120 86 l53 38
357 -162 c196 -89 381 -172 410 -185 l52 -24 0 59 0 58 -272 123 c-150 68
-334 151 -409 185 l-136 62 -121 -85z"/>
<path d="M1218 1797 l-117 -82 -1 -47 c0 -27 3 -48 6 -48 3 0 58 36 121 81
l115 81 271 -123 c150 -67 334 -151 410 -185 l137 -63 0 52 -1 52 -399 180
c-220 99 -405 181 -412 182 -7 1 -66 -35 -130 -80z"/>
<path d="M1218 1677 c-101 -70 -118 -86 -118 -109 0 -25 -19 -41 -170 -140
l-169 -113 -1 -493 c0 -272 4 -492 8 -490 4 2 137 71 295 153 l287 150 2 511
3 511 395 -179 c217 -98 398 -178 402 -178 5 0 8 21 8 48 l0 47 -403 183
c-222 100 -408 182 -413 182 -5 0 -62 -37 -126 -83z m102 -331 l0 -183 -105
-61 -105 -61 0 178 0 178 98 66 c53 36 100 66 105 66 4 1 7 -82 7 -183z m-300
-190 l0 -185 -95 -56 c-52 -30 -102 -58 -110 -61 -13 -5 -15 17 -15 168 l0
175 108 72 c59 39 108 71 110 71 1 0 2 -83 2 -184z"/>
<path d="M1442 1334 l3 -187 104 -43 c57 -24 106 -44 108 -44 2 0 2 84 1 186
l-3 186 -99 44 c-54 24 -103 44 -108 44 -5 0 -7 -82 -6 -186z"/>
<path d="M1840 1190 l0 -188 73 -30 c39 -17 89 -38 110 -46 l37 -16 0 185 0
186 -77 35 c-43 20 -93 42 -110 49 l-33 14 0 -189z"/>
<path d="M1440 790 l0 -188 73 -30 c39 -17 89 -38 110 -46 l37 -16 0 185 0
186 -77 35 c-43 20 -93 42 -110 49 l-33 14 0 -189z"/>
<path d="M1840 643 l0 -189 103 -42 c56 -23 105 -42 110 -42 4 0 7 82 7 183
l0 184 -97 42 c-54 24 -104 45 -110 48 -10 4 -13 -37 -13 -184z"/>
</g>
</svg>
